<mxfile host="app.diagrams.net" modified="2024-03-14T14:11:38.655Z" agent="Mozilla/5.0 (Windows NT 10.0; Win64; x64) AppleWebKit/537.36 (KHTML, like Gecko) Chrome/122.0.0.0 Safari/537.36" etag="e156NXjP_uJkWJ6k3098" version="23.1.2" type="device">
  <diagram id="R2lEEEUBdFMjLlhIrx00" name="Page-1">
    <mxGraphModel dx="778" dy="418" grid="1" gridSize="10" guides="1" tooltips="1" connect="1" arrows="1" fold="1" page="1" pageScale="1" pageWidth="850" pageHeight="1100" math="0" shadow="0" extFonts="Permanent Marker^https://fonts.googleapis.com/css?family=Permanent+Marker">
      <root>
        <mxCell id="0" />
        <mxCell id="1" parent="0" />
        <mxCell id="ro8Qhatsqw3CWG-dYIS6-1" value="Book" style="rounded=1;arcSize=10;whiteSpace=wrap;html=1;align=center;" vertex="1" parent="1">
          <mxGeometry x="150" y="140" width="100" height="40" as="geometry" />
        </mxCell>
        <mxCell id="ro8Qhatsqw3CWG-dYIS6-2" value="title" style="ellipse;whiteSpace=wrap;html=1;align=center;" vertex="1" parent="1">
          <mxGeometry x="40" y="30" width="80" height="30" as="geometry" />
        </mxCell>
        <mxCell id="ro8Qhatsqw3CWG-dYIS6-3" value="" style="endArrow=none;html=1;rounded=0;entryX=0.687;entryY=1.017;entryDx=0;entryDy=0;entryPerimeter=0;exitX=0.061;exitY=0.027;exitDx=0;exitDy=0;exitPerimeter=0;" edge="1" parent="1" source="ro8Qhatsqw3CWG-dYIS6-1" target="ro8Qhatsqw3CWG-dYIS6-2">
          <mxGeometry relative="1" as="geometry">
            <mxPoint x="170" y="140" as="sourcePoint" />
            <mxPoint x="330" y="140" as="targetPoint" />
          </mxGeometry>
        </mxCell>
        <mxCell id="ro8Qhatsqw3CWG-dYIS6-4" value="author" style="ellipse;whiteSpace=wrap;html=1;align=center;" vertex="1" parent="1">
          <mxGeometry x="20" y="70" width="80" height="30" as="geometry" />
        </mxCell>
        <mxCell id="ro8Qhatsqw3CWG-dYIS6-5" value="genre" style="ellipse;whiteSpace=wrap;html=1;align=center;" vertex="1" parent="1">
          <mxGeometry x="130" y="30" width="80" height="30" as="geometry" />
        </mxCell>
        <mxCell id="ro8Qhatsqw3CWG-dYIS6-6" value="price" style="ellipse;whiteSpace=wrap;html=1;align=center;" vertex="1" parent="1">
          <mxGeometry x="220" y="30" width="80" height="30" as="geometry" />
        </mxCell>
        <mxCell id="ro8Qhatsqw3CWG-dYIS6-7" value="quantity" style="ellipse;whiteSpace=wrap;html=1;align=center;" vertex="1" parent="1">
          <mxGeometry x="20" y="110" width="80" height="30" as="geometry" />
        </mxCell>
        <mxCell id="ro8Qhatsqw3CWG-dYIS6-8" value="" style="endArrow=none;html=1;rounded=0;entryX=0.968;entryY=0.63;entryDx=0;entryDy=0;entryPerimeter=0;exitX=-0.008;exitY=0.17;exitDx=0;exitDy=0;exitPerimeter=0;" edge="1" parent="1" source="ro8Qhatsqw3CWG-dYIS6-1" target="ro8Qhatsqw3CWG-dYIS6-4">
          <mxGeometry relative="1" as="geometry">
            <mxPoint x="166" y="151" as="sourcePoint" />
            <mxPoint x="105" y="71" as="targetPoint" />
          </mxGeometry>
        </mxCell>
        <mxCell id="ro8Qhatsqw3CWG-dYIS6-9" value="" style="endArrow=none;html=1;rounded=0;entryX=0.992;entryY=0.617;entryDx=0;entryDy=0;entryPerimeter=0;exitX=0.011;exitY=0.399;exitDx=0;exitDy=0;exitPerimeter=0;" edge="1" parent="1" source="ro8Qhatsqw3CWG-dYIS6-1" target="ro8Qhatsqw3CWG-dYIS6-7">
          <mxGeometry relative="1" as="geometry">
            <mxPoint x="160" y="150" as="sourcePoint" />
            <mxPoint x="107" y="99" as="targetPoint" />
          </mxGeometry>
        </mxCell>
        <mxCell id="ro8Qhatsqw3CWG-dYIS6-10" value="" style="endArrow=none;html=1;rounded=0;entryX=0.464;entryY=0.96;entryDx=0;entryDy=0;entryPerimeter=0;exitX=0.183;exitY=-0.001;exitDx=0;exitDy=0;exitPerimeter=0;" edge="1" parent="1" source="ro8Qhatsqw3CWG-dYIS6-1" target="ro8Qhatsqw3CWG-dYIS6-5">
          <mxGeometry relative="1" as="geometry">
            <mxPoint x="166" y="151" as="sourcePoint" />
            <mxPoint x="105" y="71" as="targetPoint" />
          </mxGeometry>
        </mxCell>
        <mxCell id="ro8Qhatsqw3CWG-dYIS6-11" value="" style="endArrow=none;html=1;rounded=0;entryX=0.449;entryY=1.037;entryDx=0;entryDy=0;entryPerimeter=0;exitX=0.601;exitY=-0.03;exitDx=0;exitDy=0;exitPerimeter=0;" edge="1" parent="1" source="ro8Qhatsqw3CWG-dYIS6-1" target="ro8Qhatsqw3CWG-dYIS6-6">
          <mxGeometry relative="1" as="geometry">
            <mxPoint x="178" y="150" as="sourcePoint" />
            <mxPoint x="177" y="69" as="targetPoint" />
          </mxGeometry>
        </mxCell>
        <mxCell id="ro8Qhatsqw3CWG-dYIS6-12" value="User" style="rounded=1;arcSize=10;whiteSpace=wrap;html=1;align=center;" vertex="1" parent="1">
          <mxGeometry x="660" y="140" width="100" height="40" as="geometry" />
        </mxCell>
        <mxCell id="ro8Qhatsqw3CWG-dYIS6-13" value="name" style="ellipse;whiteSpace=wrap;html=1;align=center;" vertex="1" parent="1">
          <mxGeometry x="550" y="30" width="80" height="30" as="geometry" />
        </mxCell>
        <mxCell id="ro8Qhatsqw3CWG-dYIS6-14" value="" style="endArrow=none;html=1;rounded=0;entryX=0.687;entryY=1.017;entryDx=0;entryDy=0;entryPerimeter=0;exitX=0.061;exitY=0.027;exitDx=0;exitDy=0;exitPerimeter=0;" edge="1" parent="1" source="ro8Qhatsqw3CWG-dYIS6-12" target="ro8Qhatsqw3CWG-dYIS6-13">
          <mxGeometry relative="1" as="geometry">
            <mxPoint x="680" y="140" as="sourcePoint" />
            <mxPoint x="840" y="140" as="targetPoint" />
          </mxGeometry>
        </mxCell>
        <mxCell id="ro8Qhatsqw3CWG-dYIS6-16" value="password" style="ellipse;whiteSpace=wrap;html=1;align=center;" vertex="1" parent="1">
          <mxGeometry x="640" y="30" width="80" height="30" as="geometry" />
        </mxCell>
        <mxCell id="ro8Qhatsqw3CWG-dYIS6-17" value="userName" style="ellipse;whiteSpace=wrap;html=1;align=center;" vertex="1" parent="1">
          <mxGeometry x="730" y="30" width="80" height="30" as="geometry" />
        </mxCell>
        <mxCell id="ro8Qhatsqw3CWG-dYIS6-21" value="" style="endArrow=none;html=1;rounded=0;entryX=0.464;entryY=0.96;entryDx=0;entryDy=0;entryPerimeter=0;exitX=0.183;exitY=-0.001;exitDx=0;exitDy=0;exitPerimeter=0;" edge="1" parent="1" source="ro8Qhatsqw3CWG-dYIS6-12" target="ro8Qhatsqw3CWG-dYIS6-16">
          <mxGeometry relative="1" as="geometry">
            <mxPoint x="676" y="151" as="sourcePoint" />
            <mxPoint x="615" y="71" as="targetPoint" />
          </mxGeometry>
        </mxCell>
        <mxCell id="ro8Qhatsqw3CWG-dYIS6-22" value="" style="endArrow=none;html=1;rounded=0;entryX=0.449;entryY=1.037;entryDx=0;entryDy=0;entryPerimeter=0;exitX=0.659;exitY=-0.068;exitDx=0;exitDy=0;exitPerimeter=0;" edge="1" parent="1" source="ro8Qhatsqw3CWG-dYIS6-12" target="ro8Qhatsqw3CWG-dYIS6-17">
          <mxGeometry relative="1" as="geometry">
            <mxPoint x="688" y="150" as="sourcePoint" />
            <mxPoint x="687" y="69" as="targetPoint" />
          </mxGeometry>
        </mxCell>
        <mxCell id="ro8Qhatsqw3CWG-dYIS6-23" value="Id" style="ellipse;whiteSpace=wrap;html=1;align=center;fontStyle=4;" vertex="1" parent="1">
          <mxGeometry x="280" y="70" width="80" height="30" as="geometry" />
        </mxCell>
        <mxCell id="ro8Qhatsqw3CWG-dYIS6-25" value="" style="endArrow=none;html=1;rounded=0;entryX=0.079;entryY=0.719;entryDx=0;entryDy=0;entryPerimeter=0;exitX=0.822;exitY=0.037;exitDx=0;exitDy=0;exitPerimeter=0;" edge="1" parent="1" source="ro8Qhatsqw3CWG-dYIS6-1" target="ro8Qhatsqw3CWG-dYIS6-23">
          <mxGeometry relative="1" as="geometry">
            <mxPoint x="226" y="147" as="sourcePoint" />
            <mxPoint x="266" y="71" as="targetPoint" />
          </mxGeometry>
        </mxCell>
      </root>
    </mxGraphModel>
  </diagram>
</mxfile>
